<svg width="48" height="48" viewBox="0 0 48 48" fill="none" xmlns="http://www.w3.org/2000/svg">
<path d="M24 0C37.2549 0 48 10.7451 48 24C48 37.2549 37.2549 48 24 48C10.7451 48 0 37.2549 0 24C0 10.7451 10.7451 0 24 0Z" fill="url(#paint0_radial_153_46)"/>
<mask id="mask0_153_46" style="mask-type:luminance" maskUnits="userSpaceOnUse" x="2" y="2" width="45" height="44">
<path d="M2 24C2 36.1505 11.8497 46 24 46C36.1503 46 46.0002 36.1505 46.0002 24C46.0002 11.8497 36.1503 2 24 2C11.8497 2 2 11.8497 2 24Z" fill="white"/>
</mask>
<g mask="url(#mask0_153_46)">
<path d="M46.0002 2H1.99994V46H46.0002V2Z" fill="url(#paint1_radial_153_46)"/>
</g>
<path d="M18 9.5C18 8.67157 18.6716 8 19.5 8V8C20.3284 8 21 8.67157 21 9.5V16H18V9.5Z" fill="white"/>
<path fill-rule="evenodd" clip-rule="evenodd" d="M15 17C15 15.8954 15.8954 15 17 15H31C32.1046 15 33 15.8954 33 17V36C33 37.1046 32.1046 38 31 38H17C15.8954 38 15 37.1046 15 36V17ZM28.1398 22.0094C28.0422 21.8012 27.927 21.6018 27.7953 21.4133L27.8226 19.7891C27.2217 19.2414 26.5089 18.8309 25.7336 18.5859L24.3445 19.4172C24.1151 19.4008 23.8848 19.4008 23.6555 19.4172L22.2609 18.5805C21.4881 18.83 20.7776 19.2421 20.1773 19.7891L20.2047 21.4133C20.073 21.6018 19.9577 21.8012 19.8601 22.0094L18.4383 22.7969C18.265 23.5898 18.2669 24.411 18.4437 25.2031L19.8601 25.9906C19.9589 26.1999 20.0741 26.4011 20.2047 26.5922L20.1773 28.2109C20.7783 28.7586 21.4911 29.1691 22.2664 29.4141L23.6555 28.5828C23.8848 28.5992 24.1151 28.5992 24.3445 28.5828L25.739 29.4195C26.5119 29.17 27.2224 28.7579 27.8226 28.2109L27.7953 26.5867C27.927 26.3982 28.0422 26.1988 28.1398 25.9906L29.5617 25.2031C29.735 24.4102 29.7331 23.589 29.5562 22.7969L28.1398 22.0094ZM26.625 24C26.625 25.4497 25.4497 26.625 24 26.625C22.5503 26.625 21.375 25.4497 21.375 24C21.375 22.5503 22.5503 21.375 24 21.375C25.4497 21.375 26.625 22.5503 26.625 24ZM24 34C24.5523 34 25 33.5523 25 33C25 32.4477 24.5523 32 24 32C23.4477 32 23 32.4477 23 33C23 33.5523 23.4477 34 24 34ZM21 33C21 33.5523 20.5523 34 20 34C19.4477 34 19 33.5523 19 33C19 32.4477 19.4477 32 20 32C20.5523 32 21 32.4477 21 33ZM28 34C28.5523 34 29 33.5523 29 33C29 32.4477 28.5523 32 28 32C27.4477 32 27 32.4477 27 33C27 33.5523 27.4477 34 28 34Z" fill="white"/>
<defs>
<radialGradient id="paint0_radial_153_46" cx="0" cy="0" r="1" gradientUnits="userSpaceOnUse" gradientTransform="translate(24 24) scale(24)">
<stop offset="0.99" stop-color="white"/>
<stop offset="0.99505" stop-color="#FDFDFD"/>
<stop offset="0.99687" stop-color="#F6F6F6"/>
<stop offset="0.99817" stop-color="#EBEBEB"/>
<stop offset="0.99921" stop-color="#DADADA"/>
<stop offset="1" stop-color="#C7C7C7"/>
</radialGradient>
<radialGradient id="paint1_radial_153_46" cx="0" cy="0" r="1" gradientUnits="userSpaceOnUse" gradientTransform="translate(24 24.0001) scale(22.0001 22.0001)">
<stop stop-color="#472A9A"/>
<stop offset="1" stop-color="#1E0E28"/>
</radialGradient>
</defs>
</svg>
